<svg aria-hidden="true" style="position: absolute; width: 0; height: 0; overflow: hidden;" version="1.1" xmlns="http://www.w3.org/2000/svg" xmlns:xlink="http://www.w3.org/1999/xlink">
<defs>
<symbol id="globe" viewBox="0 0 32 32">
<path fill="#fff" style="fill: var(--color1, #fff)" d="M26.234 5.765c-5.656-5.656-14.811-5.657-20.468 0s-5.657 14.811 0 20.468c5.656 5.656 14.811 5.657 20.468 0s5.657-14.811 0-20.468zM25.629 24.17c-0.676-0.605-1.4-1.14-2.162-1.601 0.504-1.741 0.803-3.656 0.873-5.648h4.255c-0.192 2.684-1.224 5.202-2.966 7.248zM3.405 16.921h4.255c0.071 1.991 0.369 3.907 0.873 5.648-0.762 0.461-1.486 0.996-2.162 1.601-1.742-2.047-2.774-4.565-2.966-7.248zM6.371 7.828c0.676 0.605 1.4 1.14 2.162 1.601-0.504 1.741-0.803 3.656-0.873 5.648h-4.255c0.192-2.684 1.224-5.202 2.966-7.249zM15.078 9.62c-1.504-0.108-2.954-0.478-4.299-1.089 0.782-2.014 2.224-4.429 4.299-5.027v6.117zM15.078 11.468v3.609h-5.572c0.064-1.684 0.303-3.302 0.699-4.782 1.528 0.668 3.171 1.067 4.873 1.173zM15.078 16.921v3.609c-1.702 0.106-3.345 0.505-4.873 1.173-0.397-1.48-0.636-3.097-0.699-4.782h5.572zM15.078 22.378v6.117c-2.075-0.599-3.517-3.013-4.299-5.027 1.345-0.611 2.795-0.982 4.299-1.089zM16.922 22.378c1.504 0.108 2.955 0.478 4.299 1.089-0.782 2.014-2.224 4.429-4.299 5.027v-6.117zM16.922 20.53v-3.609h5.573c-0.064 1.684-0.302 3.302-0.699 4.782-1.528-0.668-3.171-1.067-4.873-1.173zM16.922 15.077v-3.609c1.702-0.106 3.345-0.505 4.873-1.173 0.397 1.48 0.636 3.097 0.699 4.782h-5.573zM16.922 9.62v-6.117c2.076 0.599 3.517 3.014 4.299 5.027-1.345 0.611-2.795 0.982-4.299 1.089zM21.065 4.424c1.18 0.517 2.282 1.218 3.269 2.088-0.47 0.414-0.966 0.79-1.484 1.126-0.46-1.139-1.047-2.245-1.786-3.214zM9.15 7.638c-0.518-0.336-1.014-0.712-1.484-1.126 0.987-0.87 2.089-1.571 3.269-2.088-0.738 0.969-1.326 2.075-1.786 3.214zM9.15 24.36c0.46 1.139 1.047 2.245 1.786 3.214-1.181-0.517-2.282-1.218-3.269-2.088 0.47-0.414 0.966-0.79 1.484-1.126zM22.851 24.36c0.518 0.336 1.014 0.712 1.484 1.126-0.987 0.87-2.089 1.571-3.269 2.088 0.738-0.969 1.326-2.075 1.786-3.214zM24.34 15.077c-0.071-1.991-0.369-3.907-0.873-5.648 0.762-0.461 1.486-0.996 2.162-1.601 1.742 2.047 2.774 4.565 2.966 7.249h-4.255z"></path>
</symbol>
<symbol id="time" viewBox="0 0 32 32">
<path fill="#fff" style="fill: var(--color1, #fff)" d="M12 9.333h2.667v6.667h6.667v2.667h-9.333v-9.333z"></path>
<path fill="#fff" style="fill: var(--color1, #fff)" d="M29.333 16c0-7.364-5.969-13.333-13.333-13.333s-13.333 5.969-13.333 13.333 5.969 13.333 13.333 13.333c7.364 0 13.333-5.969 13.333-13.333zM26.667 16c0 2.829-1.124 5.542-3.124 7.542s-4.713 3.124-7.542 3.124c-2.829 0-5.542-1.124-7.542-3.124s-3.124-4.713-3.124-7.542c0-2.829 1.124-5.542 3.124-7.542s4.713-3.124 7.542-3.124c2.829 0 5.542 1.124 7.542 3.124s3.124 4.713 3.124 7.542z"></path>
</symbol>
<symbol id="calendar" viewBox="0 0 32 32">
<path fill="#fff" style="fill: var(--color1, #fff)" d="M26.666 4h-1.333v-2.667h-2.667v2.667h-13.333v-2.667h-2.667v2.667h-1.333c-1.467 0-2.667 1.2-2.667 2.667v21.333c0 1.467 1.2 2.667 2.667 2.667h21.333c1.467 0 2.667-1.2 2.667-2.667v-21.333c0-1.467-1.2-2.667-2.667-2.667zM26.666 28h-21.333v-17.333h21.333v17.333z"></path>
</symbol>
</defs>
</svg>
